<svg width="24" height="24" viewBox="0 0 24 24" fill="none" xmlns="http://www.w3.org/2000/svg">
<path d="M15 20C16.5823 20 18.129 19.5308 19.4446 18.6518C20.7602 17.7727 21.7855 16.5233 22.391 15.0615C22.9965 13.5997 23.155 11.9911 22.8463 10.4393C22.5376 8.88743 21.7757 7.46197 20.6569 6.34315C19.538 5.22433 18.1126 4.4624 16.5607 4.15372C15.0089 3.84504 13.4003 4.00347 11.9385 4.60897C10.4767 5.21447 9.22729 6.23985 8.34824 7.55544C7.46919 8.87103 7 10.4178 7 12C7.00238 14.121 7.846 16.1545 9.34578 17.6542C10.8456 19.154 12.879 19.9976 15 20ZM15 6C16.1867 6 17.3467 6.3519 18.3334 7.01119C19.3201 7.67047 20.0892 8.60755 20.5433 9.7039C20.9974 10.8003 21.1162 12.0067 20.8847 13.1705C20.6532 14.3344 20.0818 15.4035 19.2426 16.2426C18.4035 17.0818 17.3344 17.6532 16.1705 17.8847C15.0067 18.1162 13.8003 17.9974 12.7039 17.5433C11.6075 17.0892 10.6705 16.3201 10.0112 15.3334C9.35189 14.3467 9 13.1867 9 12C9.00159 10.4092 9.63424 8.88399 10.7591 7.75912C11.884 6.63424 13.4092 6.00159 15 6ZM1 12C1.00442 10.487 1.43573 9.00597 2.24434 7.72716C3.05294 6.44836 4.20602 5.4237 5.571 4.771C5.69002 4.711 5.81985 4.67539 5.95283 4.66628C6.08581 4.65717 6.21928 4.67473 6.34537 4.71795C6.47147 4.76116 6.58765 4.82915 6.6871 4.91791C6.78654 5.00667 6.86723 5.11442 6.92443 5.23482C6.98163 5.35522 7.01418 5.48584 7.02017 5.619C7.02616 5.75216 7.00547 5.88518 6.95931 6.01023C6.91315 6.13527 6.84246 6.24983 6.75139 6.34717C6.66032 6.4445 6.55071 6.52264 6.429 6.577C5.40207 7.06316 4.53429 7.83091 3.9266 8.79094C3.31892 9.75097 2.99631 10.8638 2.99631 12C2.99631 13.1362 3.31892 14.249 3.9266 15.2091C4.53429 16.1691 5.40207 16.9368 6.429 17.423C6.55071 17.4774 6.66032 17.5555 6.75139 17.6528C6.84246 17.7502 6.91315 17.8647 6.95931 17.9898C7.00547 18.1148 7.02616 18.2478 7.02017 18.381C7.01418 18.5142 6.98163 18.6448 6.92443 18.7652C6.86723 18.8856 6.78654 18.9933 6.6871 19.0821C6.58765 19.1709 6.47147 19.2388 6.34537 19.2821C6.21928 19.3253 6.08581 19.3428 5.95283 19.3337C5.81985 19.3246 5.69002 19.289 5.571 19.229C4.20602 18.5763 3.05294 17.5517 2.24434 16.2728C1.43573 14.994 1.00442 13.513 1 12Z" fill="#149849"/>
</svg>
