<svg width="20" height="20" viewBox="0 0 20 20" fill="none" xmlns="http://www.w3.org/2000/svg">
<path d="M18.3333 5.83333H17.4117C17.4744 5.5601 17.5041 5.28031 17.5 4.99999C17.5354 4.55325 17.4734 4.10415 17.3184 3.68368C17.1634 3.2632 16.9191 2.88135 16.6022 2.56446C16.2853 2.24758 15.9035 2.00321 15.483 1.84821C15.0625 1.69321 14.6134 1.63127 14.1667 1.66666C12.3633 1.66666 10.8592 3.55916 9.99999 4.93999C9.14083 3.55916 7.63666 1.66666 5.83333 1.66666C5.38659 1.63127 4.93749 1.69321 4.51701 1.84821C4.09653 2.00321 3.71468 2.24758 3.3978 2.56446C3.08092 2.88135 2.83655 3.2632 2.68155 3.68368C2.52655 4.10415 2.46461 4.55325 2.49999 4.99999C2.49589 5.28031 2.52555 5.5601 2.58833 5.83333H1.66666C1.44565 5.83333 1.23369 5.92112 1.07741 6.0774C0.921126 6.23368 0.833328 6.44565 0.833328 6.66666V10.8333C0.833328 11.0543 0.921126 11.2663 1.07741 11.4226C1.23369 11.5789 1.44565 11.6667 1.66666 11.6667H2.49999V17.5C2.49999 17.721 2.58779 17.933 2.74407 18.0892C2.90035 18.2455 3.11231 18.3333 3.33333 18.3333H16.6667C16.8877 18.3333 17.0996 18.2455 17.2559 18.0892C17.4122 17.933 17.5 17.721 17.5 17.5V11.6667H18.3333C18.5543 11.6667 18.7663 11.5789 18.9226 11.4226C19.0789 11.2663 19.1667 11.0543 19.1667 10.8333V6.66666C19.1667 6.44565 19.0789 6.23368 18.9226 6.0774C18.7663 5.92112 18.5543 5.83333 18.3333 5.83333ZM5.83333 3.33333C6.76083 3.33333 7.84916 4.65249 8.58999 5.83333H6.29666C4.16666 5.83333 4.16666 5.49999 4.16666 4.99999C4.16666 3.50666 5.11833 3.33333 5.83333 3.33333ZM9.16666 16.6667H4.16666V11.6667H9.16666V16.6667ZM9.16666 9.99999H2.49999V7.49999H9.16666V9.99999ZM14.1667 3.33333C14.8817 3.33333 15.8333 3.50666 15.8333 4.99999C15.8333 5.49999 15.8333 5.83333 13.7033 5.83333H11.41C12.1508 4.65249 13.2392 3.33333 14.1667 3.33333ZM15.8333 16.6667H10.8333V11.6667H15.8333V16.6667ZM17.5 9.99999H10.8333V7.49999H17.5V9.99999Z" fill="#5D78D9"/>
</svg>
