<svg width="27" height="27" viewBox="0 0 27 27" fill="none" xmlns="http://www.w3.org/2000/svg">
<path d="M21.546 15.75C21.8444 15.75 22.1305 15.6315 22.3415 15.4205C22.5525 15.2095 22.671 14.9234 22.671 14.625V10.971C22.7894 10.8645 22.902 10.7519 23.0085 10.6335C23.4343 10.0917 23.73 9.45943 23.8727 8.78534C24.0155 8.11124 24.0016 7.41336 23.832 6.7455L22.6361 1.97775C22.5755 1.73445 22.4352 1.5184 22.2377 1.3639C22.0402 1.2094 21.7968 1.12532 21.546 1.125H3.54601C3.29521 1.12501 3.05161 1.20881 2.8539 1.36311C2.65619 1.51741 2.5157 1.73335 2.45476 1.97662L1.26226 6.74325C1.09285 7.41119 1.0791 8.10912 1.22207 8.78322C1.36504 9.45732 1.66092 10.0896 2.08688 10.6312C2.19307 10.7499 2.30575 10.8626 2.42438 10.9688V24.75C2.42438 25.0484 2.54291 25.3345 2.75389 25.5455C2.96487 25.7565 3.25101 25.875 3.54938 25.875H16.0875C16.3859 25.875 16.672 25.7565 16.883 25.5455C17.094 25.3345 17.2125 25.0484 17.2125 24.75C17.2125 24.4516 17.094 24.1655 16.883 23.9545C16.672 23.7435 16.3859 23.625 16.0875 23.625H4.66988V12.2625C5.46814 12.4455 6.30142 12.4046 7.07794 12.1444C7.85446 11.8842 8.5441 11.4147 9.07088 10.7876C9.10463 10.827 9.12826 10.8731 9.16313 10.9114C9.58813 11.3722 10.1039 11.7401 10.6779 11.992C11.2519 12.2439 11.8719 12.3743 12.4988 12.375H12.5921C13.2188 12.3745 13.8385 12.2443 14.4124 11.9926C14.9863 11.7409 15.5018 11.3732 15.9266 10.9125C15.9626 10.8742 15.9851 10.827 16.0189 10.7887C16.5461 11.4156 17.2359 11.8849 18.0126 12.1449C18.7893 12.4049 19.6227 12.4456 20.421 12.2625V14.625C20.421 14.9234 20.5395 15.2095 20.7505 15.4205C20.9615 15.6315 21.2476 15.75 21.546 15.75ZM8.30926 3.52575L7.98076 7.46325L7.93463 8.02575C7.88554 8.59631 7.62501 9.12793 7.20417 9.5163C6.78332 9.90468 6.23254 10.1218 5.65988 10.125C5.31296 10.1251 4.97057 10.0461 4.65875 9.89404C4.34692 9.74198 4.07386 9.52084 3.86031 9.24742C3.64676 8.97401 3.49835 8.65551 3.42634 8.31614C3.35433 7.97677 3.36063 7.62545 3.44476 7.28888L4.42351 3.375H8.32501L8.30926 3.52575ZM14.2718 9.38813C14.0588 9.62152 13.7994 9.80768 13.5101 9.9346C13.2207 10.0615 12.908 10.1264 12.5921 10.125H12.4988C12.1834 10.1251 11.8715 10.0599 11.5827 9.93336C11.2938 9.80686 11.0344 9.62187 10.8206 9.39004C10.6069 9.15822 10.4435 8.88461 10.3408 8.58647C10.2381 8.28834 10.1984 7.97215 10.224 7.65788L10.575 3.375H14.5125L14.8691 7.65C14.8966 7.96538 14.8576 8.28301 14.7547 8.58239C14.6518 8.88177 14.4873 9.15625 14.2718 9.38813ZM19.431 10.125C18.8593 10.122 18.3093 9.90584 17.8884 9.51888C17.4675 9.13193 17.2061 8.60194 17.1551 8.0325L16.7625 3.375H20.6663L21.645 7.28888C21.7291 7.62536 21.7354 7.97658 21.6635 8.31587C21.5915 8.65516 21.4432 8.97359 21.2298 9.24698C21.0164 9.52037 20.7435 9.74154 20.4318 9.89368C20.1201 10.0458 19.7778 10.1249 19.431 10.125ZM22.8746 19.8754L25.875 20.313L23.3753 22.3751L24.156 25.875L21.375 23.8748L18.594 25.875L19.3748 22.3751L16.875 20.313L19.8754 19.8754L21.375 16.875L22.8746 19.8754Z" fill="#727373"/>
</svg>
