<svg width="20" height="20" viewBox="0 0 20 20" fill="none" xmlns="http://www.w3.org/2000/svg">
<path d="M10 2.5C14.4933 2.5 18.2317 5.73333 19.0158 10C18.2325 14.2667 14.4933 17.5 10 17.5C5.50667 17.5 1.76833 14.2667 0.984167 10C1.7675 5.73333 5.50667 2.5 10 2.5ZM10 15.8333C11.6996 15.833 13.3487 15.2557 14.6774 14.196C16.0061 13.1363 16.9358 11.6569 17.3142 10C16.9344 8.34442 16.0041 6.86667 14.6755 5.80835C13.3469 4.75004 11.6986 4.17377 10 4.17377C8.30141 4.17377 6.65307 4.75004 5.32448 5.80835C3.99589 6.86667 3.06564 8.34442 2.68583 10C3.06425 11.6569 3.9939 13.1363 5.32262 14.196C6.65135 15.2557 8.30044 15.833 10 15.8333ZM10 13.75C9.00544 13.75 8.05161 13.3549 7.34835 12.6516C6.64509 11.9484 6.25 10.9946 6.25 10C6.25 9.00544 6.64509 8.05161 7.34835 7.34835C8.05161 6.64509 9.00544 6.25 10 6.25C10.9946 6.25 11.9484 6.64509 12.6516 7.34835C13.3549 8.05161 13.75 9.00544 13.75 10C13.75 10.9946 13.3549 11.9484 12.6516 12.6516C11.9484 13.3549 10.9946 13.75 10 13.75ZM10 12.0833C10.5525 12.0833 11.0824 11.8638 11.4731 11.4731C11.8638 11.0824 12.0833 10.5525 12.0833 10C12.0833 9.44747 11.8638 8.91756 11.4731 8.52686C11.0824 8.13616 10.5525 7.91667 10 7.91667C9.44747 7.91667 8.91756 8.13616 8.52686 8.52686C8.13616 8.91756 7.91667 9.44747 7.91667 10C7.91667 10.5525 8.13616 11.0824 8.52686 11.4731C8.91756 11.8638 9.44747 12.0833 10 12.0833Z" fill="#FA627D"/>
</svg>
