<svg width="20" height="20" viewBox="0 0 20 20" fill="none" xmlns="http://www.w3.org/2000/svg">
<path d="M2.5 11.6667C2.5 13.15 2.93987 14.6001 3.76398 15.8335C4.58809 17.0668 5.75943 18.0281 7.12987 18.5958C8.50032 19.1634 10.0083 19.312 11.4632 19.0226C12.918 18.7332 14.2544 18.0189 15.3033 16.97C16.3522 15.9211 17.0665 14.5847 17.3559 13.1299C17.6453 11.675 17.4968 10.167 16.9291 8.79655C16.3614 7.42611 15.4001 6.25477 14.1668 5.43066C12.9334 4.60654 11.4834 4.16668 10 4.16668C8.01155 4.16888 6.10518 4.95977 4.69914 6.36581C3.29309 7.77186 2.50221 9.67823 2.5 11.6667ZM10 5.83334C11.1537 5.83334 12.2815 6.17546 13.2408 6.81644C14.2001 7.45741 14.9478 8.36845 15.3893 9.43436C15.8308 10.5003 15.9463 11.6731 15.7212 12.8047C15.4962 13.9363 14.9406 14.9757 14.1248 15.7915C13.309 16.6073 12.2696 17.1628 11.138 17.3879C10.0065 17.613 8.83358 17.4975 7.76768 17.056C6.70178 16.6145 5.79074 15.8668 5.14976 14.9075C4.50879 13.9482 4.16667 12.8204 4.16667 11.6667C4.16843 10.1201 4.78358 8.63742 5.87716 7.54384C6.97074 6.45026 8.45344 5.83511 10 5.83334ZM9.16667 11.6667V7.66668C9.16667 7.44566 9.25446 7.2337 9.41074 7.07742C9.56702 6.92114 9.77899 6.83334 10 6.83334C10.221 6.83334 10.433 6.92114 10.5893 7.07742C10.7455 7.2337 10.8333 7.44566 10.8333 7.66668V10.8333H13.3333C13.5543 10.8333 13.7663 10.9211 13.9226 11.0774C14.0789 11.2337 14.1667 11.4457 14.1667 11.6667C14.1667 11.8877 14.0789 12.0997 13.9226 12.2559C13.7663 12.4122 13.5543 12.5 13.3333 12.5H10C9.77899 12.5 9.56702 12.4122 9.41074 12.2559C9.25446 12.0997 9.16667 11.8877 9.16667 11.6667ZM6.66667 2.50001C6.44565 2.50001 6.23369 2.41221 6.07741 2.25593C5.92113 2.09965 5.83333 1.88769 5.83333 1.66668C5.83333 1.44566 5.92113 1.2337 6.07741 1.07742C6.23369 0.921141 6.44565 0.833344 6.66667 0.833344H13.3333C13.5543 0.833344 13.7663 0.921141 13.9226 1.07742C14.0789 1.2337 14.1667 1.44566 14.1667 1.66668C14.1667 1.88769 14.0789 2.09965 13.9226 2.25593C13.7663 2.41221 13.5543 2.50001 13.3333 2.50001H6.66667Z" fill="#5AA82A"/>
</svg>
